<?xml version="1.0" standalone="no"?><!DOCTYPE svg PUBLIC "-//W3C//DTD SVG 20010904//EN" "http://www.w3.org/TR/2001/REC-SVG-20010904/DTD/svg10.dtd"><svg xmlns="http://www.w3.org/2000/svg" version="1.0" width="128.000000pt" height="128.000000pt" viewBox="0 0 128.000000 128.000000" preserveAspectRatio="xMidYMid meet">

<g transform="translate(0.000000,128.000000) scale(0.100000,-0.100000)" fill="#ffffff" stroke="none">
<path d="M90 696 l0 -585 53 -3 52 -3 3 -48 c3 -45 13 -59 27 -37 9 15 36 12 57 -7 17 -15 18 -14 18 40 l0 57 445 0 445 0 0 585 0 585 -550 0 -550 0 0 -584z m340 174 c11 -11 20 -26 20 -33 0 -25 -31 -57 -56 -57 -19 0 -24 -5 -24 -25 0 -18 -5 -25 -20 -25 -18 0 -20 7 -20 80 l0 80 40 0 c27 0 47 -7 60 -20z m165 -5 c50 -49 15 -135 -55 -135 -36 0 -80 38 -80 69 0 77 84 118 135 66z m153 9 c24 -17 29 -53 10 -72 -10 -10 -8 -19 5 -42 l18 -30 -26 0 c-17 0 -29 8 -37 25 -6 14 -15 25 -20 25 -4 0 -8 -11 -8 -25 0 -20 -5 -25 -25 -25 -25 0 -25 1 -25 80 l0 80 43 0 c23 0 53 -7 65 -16z m172 -4 c0 -15 -7 -20 -25 -20 -24 0 -25 -3 -25 -60 0 -53 -2 -60 -20 -60 -18 0 -20 7 -20 60 0 57 -1 60 -25 60 -18 0 -25 5 -25 20 0 18 7 20 70 20 63 0 70 -2 70 -20z m-482 -197 c-2 -12 -14 -19 -36 -21 -38 -4 -44 -22 -7 -22 18 0 25 -5 25 -20 0 -15 -7 -20 -25 -20 -21 0 -25 -5 -25 -30 0 -23 -4 -30 -20 -30 -18 0 -20 7 -20 80 l0 80 56 0 c47 0 55 -3 52 -17z m132 7 c24 -13 41 -65 31 -93 -21 -55 -98 -71 -132 -28 -25 31 -24 86 1 111 21 21 69 26 100 10z m100 -50 l0 -60 35 0 c28 0 35 -4 35 -20 0 -18 -7 -20 -55 -20 l-55 0 0 80 c0 73 2 80 20 80 18 0 20 -7 20 -60z m138 -17 c-3 -70 -5 -78 -23 -78 -18 0 -20 8 -23 78 -3 77 -3 77 23 77 26 0 26 0 23 -77z m157 52 c14 -13 25 -36 25 -50 0 -30 -49 -85 -75 -85 -24 0 -72 27 -79 45 -33 86 65 154 129 90z"/>
<path d="M370 835 c0 -8 7 -15 15 -15 8 0 15 7 15 15 0 8 -7 15 -15 15 -8 0 -15 -7 -15 -15z"/>
<path d="M514 836 c-11 -28 1 -61 22 -64 31 -4 50 23 36 53 -13 27 -49 34 -58 11z"/>
<path d="M690 835 c0 -10 7 -15 18 -13 21 4 19 22 -2 26 -10 2 -16 -3 -16 -13z"/>
<path d="M497 644 c-13 -13 -7 -51 9 -65 23 -19 49 1 49 37 0 24 -5 30 -25 32 -14 2 -29 0 -33 -4z"/>
<path d="M875 631 c-7 -23 10 -61 28 -61 25 0 39 18 35 46 -2 23 -9 30 -30 32 -19 2 -28 -2 -33 -17z"/>
</g>
</svg>