<?xml version="1.0" standalone="no"?><!DOCTYPE svg PUBLIC "-//W3C//DTD SVG 20010904//EN" "http://www.w3.org/TR/2001/REC-SVG-20010904/DTD/svg10.dtd"><svg xmlns="http://www.w3.org/2000/svg" version="1.0" width="128.000000pt" height="128.000000pt" viewBox="0 0 128.000000 128.000000" preserveAspectRatio="xMidYMid meet">

<g transform="translate(0.000000,128.000000) scale(0.100000,-0.100000)" fill="#ffffff" stroke="none">
<path d="M445 1244 c-75 -16 -217 -81 -223 -101 -2 -8 16 -21 41 -32 51 -22 57 -34 50 -88 -4 -31 1 -52 26 -101 17 -34 27 -62 21 -62 -21 0 -60 -49 -60 -76 0 -20 15 -41 54 -78 31 -30 63 -71 75 -98 l20 -48 -94 0 c-52 0 -106 -5 -120 -12 -36 -16 -55 -57 -55 -115 0 -46 -2 -50 -47 -83 -87 -64 -116 -131 -111 -253 l3 -72 615 0 615 0 0 95 c-1 72 -5 104 -19 130 -23 44 -73 97 -108 116 -25 13 -28 20 -28 64 0 105 -34 130 -174 130 l-95 0 20 48 c12 27 44 68 75 98 39 37 54 58 54 78 0 26 -32 68 -59 77 -9 3 -5 23 14 74 49 129 28 225 -63 290 l-44 30 -156 2 c-111 2 -178 -2 -227 -13z m372 -35 c85 -32 128 -134 93 -224 l-12 -30 -12 35 c-14 41 -73 130 -86 130 -5 0 -22 -11 -38 -25 -39 -32 -93 -55 -132 -55 -41 0 -86 -20 -159 -70 -33 -22 -67 -43 -75 -46 -23 -9 -49 52 -43 99 7 51 -9 94 -40 111 -25 13 -25 13 28 35 28 13 80 29 113 36 74 16 324 19 363 4z m24 -214 c10 -22 19 -61 19 -87 l0 -48 -96 0 c-87 0 -96 -2 -101 -20 -3 -11 -13 -20 -23 -20 -10 0 -20 9 -23 20 -5 18 -14 20 -101 20 -79 0 -96 3 -96 15 0 20 143 113 183 119 18 3 48 8 68 11 19 3 55 18 80 34 50 33 55 30 90 -44z m-459 -212 c6 -47 3 -51 -22 -28 -23 21 -25 36 -8 53 19 19 26 14 30 -25z m78 -3 c0 -27 7 -47 20 -60 43 -43 140 -15 140 40 0 13 7 20 20 20 13 0 20 -7 20 -20 0 -33 35 -60 80 -60 27 0 47 7 60 20 13 13 20 33 20 60 0 33 3 40 20 40 13 0 20 -7 20 -20 0 -39 -23 -127 -47 -182 l-26 -58 -147 0 -147 0 -26 58 c-24 55 -47 143 -47 182 0 13 7 20 20 20 17 0 20 -7 20 -40z m118 3 c-3 -36 -5 -38 -38 -38 -33 0 -35 2 -38 38 l-3 37 41 0 41 0 -3 -37z m200 0 c-3 -36 -5 -38 -38 -38 -33 0 -35 2 -38 38 l-3 37 41 0 41 0 -3 -37z m156 14 c8 -13 6 -22 -11 -39 -28 -27 -31 -23 -25 25 4 39 17 44 36 14z m106 -297 c19 -19 20 -33 20 -230 l0 -210 -420 0 -420 0 0 210 c0 197 1 211 20 230 19 19 33 20 400 20 367 0 381 -1 400 -20z m-860 -305 l0 -135 -61 0 -62 0 5 73 c3 39 12 86 21 103 16 32 75 94 89 94 4 0 8 -61 8 -135z m969 103 c48 -47 64 -85 69 -165 l5 -73 -62 0 -61 0 0 135 c0 74 4 135 8 135 5 0 23 -14 41 -32z"/>
<path d="M460 445 l-44 -45 44 -45 c34 -35 47 -42 57 -33 11 9 8 17 -19 45 l-32 33 33 34 c29 30 35 56 12 56 -4 0 -27 -20 -51 -45z"/>
<path d="M626 415 c-60 -79 -64 -90 -42 -98 10 -4 34 20 70 68 60 79 64 90 42 98 -10 4 -34 -20 -70 -68z"/>
<path d="M754 479 c-3 -6 9 -26 27 -45 l33 -34 -32 -33 c-27 -28 -30 -36 -19 -45 10 -9 23 -2 57 33 l44 45 -44 45 c-47 47 -55 52 -66 34z"/>
<path d="M585 255 c-50 -49 -15 -135 55 -135 41 0 80 39 80 80 0 41 -39 80 -80 80 -19 0 -40 -9 -55 -25z m85 -30 c15 -18 10 -45 -12 -59 -35 -22 -74 27 -48 59 16 19 44 19 60 0z"/>
</g>
</svg>